<svg xmlns="http://www.w3.org/2000/svg" xmlns:xlink="http://www.w3.org/1999/xlink" viewBox="0 0 537.4 98.7"><path fill="#231F20" d="M45.7,80.3c-5.5,3.8-10.4,7.5-15.6,10.8c-3.5,2.2-7.3,4.1-11.1,5.7c-4.6,2-6.8,0.4-6.8-4.6
	c0.1-11.4,3.1-22.2,8.1-32.8c-4.1-3.4-8.3-6.7-12.4-10.1c-1.8-1.5-3.6-3.2-5.1-5C-2,38.8-0.6,33.8,6.6,32c5.3-1.3,10.9-1.6,16.5-2
	c5.5-0.3,11.1-0.1,17.7-0.1c2.8-6.9,5.8-14.6,8.9-22.3c1.4-3.4,2.1-7.9,7-7.7c4.5,0.2,6,4,7.3,7.7c1.7,5.1,3.5,10.1,5,15.3
	c1,3.5,2.4,5,6.4,5.3c8.5,0.6,16.9,2.1,25.3,3.6c1.7,0.3,4.2,2.1,4.4,3.6c0.3,1.6-1,4.3-2.5,5.3c-7.5,5.5-15.2,10.9-23,16
	c-2.9,1.9-3.6,3.7-3.5,7.2c0.3,9.5,0.3,19-0.5,28.5c-0.6,6.8-4.7,8.1-10.4,4.1c-3.4-2.4-6.6-5.1-9.8-7.7
	C52.3,86.1,49.2,83.4,45.7,80.3z"/><path fill="#231F20" d="M465.4,21.9c1-4,2-8.1,3.3-12.1c2.1-6.6,6.3-8,10.8-2.9c6.3,7.1,12,14.7,17.4,22.5c2,2.8,3.7,3.9,7.1,3.6
	c9.3-0.6,18.6-0.9,28-0.9c1.8,0,4.5,1.3,5.2,2.8c0.7,1.3-0.2,4.2-1.4,5.5c-5.8,6.2-11.7,12.4-18.1,18c-3,2.6-3.3,4.8-2,8.1
	c1.9,5,3.5,10.1,5.1,15.2c1.2,3.7,2.2,7.7-1.2,10.5c-3.8,3.1-7.1-0.1-10.2-2c-7.1-4.3-14.1-8.6-20.4-12.5c-5.3,4-9.6,7.5-14.2,10.6
	c-4.6,3-9.3,6.1-14.4,8.3c-6.9,2.9-10.9-0.3-10.4-7.6c0.2-2.4,0.6-4.7,1.2-7c1.2-5.2,2.6-10.4,3.9-15.5
	C444.5,61,435.6,54.1,428.7,45c-3-4-2.2-6.5,2.7-7.7c4-1,8.2-1.7,12.3-2.1c6.1-0.5,12.3-0.5,19-0.7C463.6,30,464.4,25.9,465.4,21.9z
	"/><path fill="#231F20" d="M288.6,35.7c6.4,2,12.3,3.6,18.1,5.7c3.9,1.4,7.7,3.2,11.3,5.2c4.4,2.5,4.6,5.1,0.6,8.1
	c-9.1,6.9-19.4,11.2-30.8,13.8c-0.1,5.3-0.2,10.7-0.4,16c-0.1,2.4-0.3,4.8-0.7,7.1c-1.4,7.2-6.2,9.3-12,4.6
	c-4.3-3.4-8-7.6-11.7-11.8c-3.7-4.2-6.9-8.7-11-13.9c-7.1,2.1-15.1,4.4-23,6.7c-3.6,1-7.5,3.2-10.4-0.8c-2.6-3.6-0.6-7.2,1.5-10.4
	c3-4.5,5.8-9,9-13.3c2.1-2.9,2.4-5,0.2-8.3c-4.7-7.1-8.8-14.6-12.8-22.1c-0.8-1.6-0.9-4.6,0.1-5.7c1.1-1.2,4-1.8,5.7-1.3
	c9,2.5,17.9,5.2,26.7,8.3c3.2,1.1,5.1,0.6,7.8-1.6c7.3-6.1,14.8-12,22.7-17.1c5.7-3.7,9.3-1.3,9.7,5.6c0.2,4.2,0.1,8.3,0,12.5
	C289.1,26.9,288.9,31,288.6,35.7z"/><script type="text/javascript"><![CDATA[ var c=window.location.search.split("color=")[1];if(c=parseInt(c,16),!isNaN(c)){c=c.toString(16);for(var p=document.getElementsByTagName("path"),i=0,l=p.length;i<l;i++){(s=p[i].style).fill="#"+c}var r=document.getElementsByTagName("circle");for(i=0,l=r.length;i<l;i++){(s=r[i].style).fill="#"+c}var t=document.getElementsByTagName("rect");for(i=0,l=t.length;i<l;i++){(s=t[i].style).fill="#"+c}var y=document.getElementsByTagName("polygon");for(i=0,l=y.length;i<l;i++){(s=y[i].style).fill="#"+c}var e=document.getElementsByTagName("ellipse");for(i=0,l=e.length;i<l;i++){var s;(s=e[i].style).fill="#"+c}} ]]></script></svg>
